<svg width="32" height="32" viewBox="0 0 32 32" fill="none" xmlns="http://www.w3.org/2000/svg">
<g clip-path="url(#clip0_4492_2047)">
<rect width="32" height="32" rx="16" fill="#EFF5FB"/>
<g clip-path="url(#clip1_4492_2047)">
<path d="M24.4702 10.7133C23.834 10.9947 23.1593 11.1795 22.4685 11.2616C23.1967 10.8261 23.7416 10.1408 24.0019 9.33327C23.3185 9.73994 22.5694 10.0249 21.7885 10.1791C21.264 9.61792 20.5688 9.24574 19.811 9.12043C19.0532 8.99511 18.2752 9.12368 17.5979 9.48615C16.9207 9.84862 16.3822 10.4247 16.0661 11.1248C15.7501 11.8249 15.6742 12.6098 15.8502 13.3574C14.4645 13.288 13.1088 12.9279 11.8713 12.3005C10.6337 11.6731 9.54198 10.7925 8.66688 9.71577C8.35712 10.2478 8.19434 10.8526 8.19521 11.4683C8.19521 12.6766 8.81021 13.7441 9.74521 14.3691C9.19188 14.3517 8.65074 14.2023 8.16688 13.9333V13.9766C8.16704 14.7814 8.44552 15.5613 8.95508 16.1842C9.46465 16.807 10.1739 17.2345 10.9627 17.3941C10.4491 17.5333 9.91046 17.5538 9.38771 17.4541C9.6101 18.1468 10.0435 18.7526 10.6274 19.1867C11.2112 19.6208 11.9161 19.8614 12.6435 19.8749C11.9206 20.4427 11.0929 20.8624 10.2076 21.1101C9.32236 21.3577 8.39698 21.4285 7.48438 21.3183C9.07746 22.3428 10.932 22.8867 12.826 22.8849C19.2369 22.8849 22.7427 17.5741 22.7427 12.9683C22.7427 12.8183 22.7385 12.6666 22.7319 12.5183C23.4143 12.0251 24.0032 11.4141 24.471 10.7141L24.4702 10.7133Z" fill="#333333"/>
</g>
</g>
<defs>
<clipPath id="clip0_4492_2047">
<rect width="32" height="32" fill="white"/>
</clipPath>
<clipPath id="clip1_4492_2047">
<rect width="18" height="18" fill="white" transform="translate(7 7)"/>
</clipPath>
</defs>
</svg>
