<svg width="51" height="36" fill="none" xmlns="http://www.w3.org/2000/svg"><g clip-path="url(#a)" fill="#2963A3"><path d="M13.33 1.28a1.109 1.109 0 0 0-.39-.844 1.294 1.294 0 0 0-.903-.354 1.224 1.224 0 0 0-.661.18 1.18 1.18 0 0 0-.474.6l-4.164 9.35L2.563.843a1.207 1.207 0 0 0-.46-.568 1.188 1.188 0 0 0-.7-.194C1.048.08.703.206.432.436A1.078 1.078 0 0 0 0 1.315c-.002.167.035.332.107.483l5.205 11.18-1.859 4.006a1.53 1.53 0 0 0-.135.544 1.018 1.018 0 0 0 .393.818c.245.21.556.323.877.32.236 0 .466-.072.661-.205.214-.141.38-.345.476-.583l7.498-16.08c.071-.163.108-.34.107-.518zm26.177 11.232a1.22 1.22 0 0 0 .352.915 1.271 1.271 0 0 0 .918.339 1.4 1.4 0 0 0 .997-.358 1.209 1.209 0 0 0 .388-.922V1.39a1.327 1.327 0 0 0-.365-.98 1.552 1.552 0 0 0-1.985.012 1.29 1.29 0 0 0-.378.968v6.407c0 1.143-.319 2.06-.957 2.752a3.292 3.292 0 0 1-2.55 1.036c-.898 0-1.563-.254-1.997-.762-.434-.508-.65-1.297-.648-2.366V1.39a1.329 1.329 0 0 0-.365-.98 1.353 1.353 0 0 0-.991-.356 1.385 1.385 0 0 0-1.013.355 1.292 1.292 0 0 0-.364.98v7.1c0 3.56 1.602 5.342 4.804 5.342a5.007 5.007 0 0 0 2.442-.6 4.236 4.236 0 0 0 1.712-1.745v1.025zm-24.152 21.38l-.757-.056c-.719-.054-1.254-.28-1.606-.68-.349-.4-.52-1.029-.52-1.883v-6.596h2.662c.314.024.626-.07.877-.263a.992.992 0 0 0 .31-.789 1.018 1.018 0 0 0-.31-.789 1.256 1.256 0 0 0-.877-.286H12.46v-2.808a1.28 1.28 0 0 0-.377-.98 1.402 1.402 0 0 0-1-.358 1.342 1.342 0 0 0-.983.355 1.292 1.292 0 0 0-.365.98v2.81H8.117a1.25 1.25 0 0 0-.877.287 1 1 0 0 0-.312.79c0 .7.396 1.05 1.19 1.05h1.618v6.408c0 1.543.36 2.713 1.08 3.502.721.788 1.806 1.24 3.264 1.351l.729.053c.423.061.855-.02 1.228-.232a.939.939 0 0 0 .419-.83.985.985 0 0 0-.26-.723 1.34 1.34 0 0 0-.84-.313zm20.657-17.394a1.448 1.448 0 0 0-.984.341 1.244 1.244 0 0 0-.39.994v16.85a1.215 1.215 0 0 0 .39.98c.279.225.628.34.984.327.353.015.7-.101.973-.326a1.23 1.23 0 0 0 .377-.981v-16.85a1.283 1.283 0 0 0-.377-.994 1.407 1.407 0 0 0-.973-.341zM50.513 33.7l-5.288-4.717 4.804-4.443a1.292 1.292 0 0 0 .46-.954 1.32 1.32 0 0 0-.38-.897 1.295 1.295 0 0 0-.89-.384 1.367 1.367 0 0 0-.89.41l-6.152 5.805V17.833a1.273 1.273 0 0 0-.377-.994 1.4 1.4 0 0 0-.971-.341 1.45 1.45 0 0 0-.986.341 1.244 1.244 0 0 0-.39.994V34.66a1.261 1.261 0 0 0 .39.997c.276.231.627.352.986.339.354.014.701-.107.97-.34a1.268 1.268 0 0 0 .378-.996v-5.047l6.72 5.996c.244.245.575.382.919.382a1.09 1.09 0 0 0 .835-.382 1.29 1.29 0 0 0 .36-.904 1.275 1.275 0 0 0-.498-1.004zM15.334 13.821h6.996a6.74 6.74 0 0 0 3.415-.844 5.72 5.72 0 0 0 2.266-2.41 7.954 7.954 0 0 0 .794-3.642 7.97 7.97 0 0 0-.794-3.665A5.705 5.705 0 0 0 25.745.844 6.74 6.74 0 0 0 22.33 0h-2.21a6.73 6.73 0 0 0-3.412.844 5.674 5.674 0 0 0-2.266 2.416 7.972 7.972 0 0 0-.797 3.665v3.854c0 2.222.562 3.042 1.69 3.042zM17.37 3.418c.65-.806 1.566-1.21 2.751-1.21h2.21c1.187 0 2.105.405 2.754 1.215s.972 1.977.97 3.502c0 1.544-.319 2.716-.957 3.515-.639.8-1.561 1.2-2.767 1.202h-5.9s-.034-3.174-.034-4.717c0-1.543.325-2.695.973-3.507zm12.24 19.605a6.713 6.713 0 0 0-3.413-.847h-2.21a6.748 6.748 0 0 0-3.414.847 5.697 5.697 0 0 0-2.267 2.413 8.01 8.01 0 0 0-.78 3.665 7.978 7.978 0 0 0 .78 3.642 5.705 5.705 0 0 0 2.267 2.41 6.749 6.749 0 0 0 3.415.845h6.996c1.13 0 1.689-.82 1.689-3.05V29.1a7.953 7.953 0 0 0-.797-3.665 5.664 5.664 0 0 0-2.267-2.413zm.278 10.795h-5.9c-1.203 0-2.125-.4-2.767-1.199-.642-.8-.96-1.972-.955-3.518 0-1.528.324-2.695.97-3.502.648-.806 1.565-1.21 2.752-1.214h2.21c1.186 0 2.104.405 2.753 1.214.649.81.975 1.978.979 3.502 0 1.544-.042 4.717-.042 4.717z"/></g><defs><clipPath id="a"><path fill="#fff" d="M0 0h51v36H0z"/></clipPath></defs></svg>