<svg width="65" height="48" viewBox="0 0 65 48" fill="none" xmlns="http://www.w3.org/2000/svg">
<rect x="0.5" width="64" height="48" rx="4" fill="#16C8BB"/>
<path d="M23.5 25.0001H29.5V23.0001H23.5V13.8461C23.5 13.7592 23.5227 13.6738 23.5657 13.5984C23.6088 13.5229 23.6708 13.46 23.7456 13.4158C23.8204 13.3716 23.9054 13.3476 23.9923 13.3463C24.0791 13.3449 24.1649 13.3662 24.241 13.4081L42.703 23.5621C42.7814 23.6053 42.8468 23.6687 42.8923 23.7457C42.9378 23.8228 42.9618 23.9106 42.9618 24.0001C42.9618 24.0896 42.9378 24.1774 42.8923 24.2545C42.8468 24.3315 42.7814 24.3949 42.703 24.4381L24.241 34.5921C24.1649 34.634 24.0791 34.6553 23.9923 34.654C23.9054 34.6526 23.8204 34.6287 23.7456 34.5844C23.6708 34.5402 23.6088 34.4773 23.5657 34.4018C23.5227 34.3264 23.5 34.241 23.5 34.1541V25.0001Z" fill="white"/>
</svg>
