<svg width="100" height="50" viewBox="0 0 100 50" fill="none" xmlns="http://www.w3.org/2000/svg">
<path d="M83.2307 23.751C86.2668 19.2628 87.1299 15.3838 85.7388 13.9927C85.3022 13.5662 84.6421 13.3428 83.779 13.3428C81.8801 13.3428 79.0775 14.409 75.9805 16.5008C77.2701 17.4959 78.5597 18.623 79.829 19.8923C81.0983 21.1616 82.2355 22.4512 83.2205 23.7408L83.2307 23.751Z" fill="white"/>
<path d="M69.646 19.9021C70.9152 18.6328 72.2049 17.4955 73.4945 16.5105C70.3974 14.4187 67.5948 13.3525 65.6959 13.3525C64.8429 13.3525 64.1728 13.5658 63.7361 14.0024C62.345 15.3936 63.2081 19.2624 66.2442 23.7607C67.2394 22.4711 68.3767 21.1815 69.6358 19.9122L69.646 19.9021Z" fill="white"/>
<path d="M82.3354 24.9998C81.3403 23.6695 80.1624 22.2987 78.8017 20.938C77.441 19.5773 76.0702 18.3994 74.74 17.4043C73.4098 18.3994 72.0389 19.5773 70.6782 20.938C69.3176 22.2987 68.1397 23.6695 67.1445 24.9998C68.1397 26.33 69.3176 27.7008 70.6782 29.0615C72.0389 30.4222 73.4098 31.6001 74.74 32.5952C76.0702 31.6001 77.441 30.4222 78.8017 29.0615C80.1624 27.7008 81.3403 26.33 82.3354 24.9998Z" fill="white"/>
<path d="M66.256 26.249C63.2198 30.7372 62.3567 34.6162 63.7478 36.0073C65.139 37.3985 69.0078 36.5354 73.5062 33.4891C72.2166 32.4939 70.927 31.3567 69.6577 30.0975C68.3884 28.8282 67.2511 27.5386 66.2661 26.249H66.256Z" fill="white"/>
<path d="M52.0269 0H12.2422C5.33723 0 -0.257812 5.59505 -0.257812 12.5V37.5C-0.257812 44.405 5.33723 50 12.2422 50H87.2422C94.1471 50 99.7422 44.405 99.7422 37.5V0H52.0269ZM49.7422 48.5378H12.2422C6.15974 48.5378 1.20441 43.5825 1.20441 37.5V12.5C1.20441 6.41755 6.15974 1.46223 12.2422 1.46223H49.7422V48.5378ZM86.7751 37.0329C86.0541 37.7539 85.0184 38.0991 83.7897 38.0991C81.3628 38.0991 78.1236 36.7689 74.7422 34.3928C71.3608 36.7689 68.1216 38.0991 65.6947 38.0991C64.4558 38.0991 63.4302 37.7539 62.7093 37.0329C60.5667 34.8903 61.7548 30.1076 65.3393 25C61.7548 19.8924 60.5667 15.1097 62.7093 12.9671C64.8519 10.8245 69.6346 12.0126 74.7422 15.5971C79.8498 12.0126 84.6325 10.8245 86.7751 12.9671C88.9177 15.1097 87.7296 19.8924 84.1451 25C87.7296 30.1076 88.9177 34.8903 86.7751 37.0329Z" fill="white"/>
<path d="M79.8407 30.0975C78.5714 31.3668 77.2818 32.5041 75.9922 33.4891C80.4804 36.5252 84.3594 37.3883 85.7505 36.0073C87.1417 34.6162 86.2785 30.7474 83.2424 26.249C82.2473 27.5386 81.11 28.8282 79.8508 30.0975H79.8407Z" fill="white"/>
<path d="M10.2926 15.2113C8.95222 16.8867 8.35312 19.1715 8.76945 21.0297C9.84581 25.8429 14.3137 26.6146 17.5936 27.0411C20.1829 27.3762 22.6606 27.8534 22.5997 30.1585C22.5286 32.5549 19.8275 33.1438 18.0505 33.1438C13.4303 33.1438 13.278 29.732 13.278 29.732H8.3125C8.38358 31.0114 8.76945 33.0728 10.3535 34.8396C12.0798 36.7791 14.6793 37.7539 18.0607 37.7539C20.6602 37.7539 23.0261 36.9111 24.7118 35.4083V37.4696H29.3421V31.5699L30.977 29.7726L35.6582 37.4696H41.0501L34.2365 26.2084L41.0501 18.745H35.0489L29.3421 25.0001V12.5001H24.7118V15.526C24.5595 15.3331 24.397 15.1402 24.2244 14.9472C22.5387 13.1601 20.1119 12.2563 17.0046 12.2563C13.4201 12.2563 11.3791 13.8607 10.2926 15.2113ZM17.0859 16.5923C19.1675 16.5923 21.2491 17.0594 22.0412 19.9533H24.7016V24.3806C21.3811 21.6491 14.1716 23.3652 13.3998 19.9635C12.9937 18.1763 14.7707 16.5923 17.0859 16.5923Z" fill="white"/>
</svg>
