<svg width="114" height="20" viewBox="0 0 114 20" fill="none" xmlns="http://www.w3.org/2000/svg">
<path d="M4.5376 16.3421C4.85239 16.4437 5.20779 16.4944 5.62412 16.4944C6.14199 16.4944 6.55832 16.3421 6.8731 16.0273C7.18789 15.7125 7.39098 15.2962 7.49252 14.8393L0.902344 0.887207H5.28902L9.51323 10.8994L13.2196 0.887207H17.393L11.4527 14.6362C10.6708 16.4538 9.86864 17.8043 8.98521 18.6573C8.10178 19.5407 7.14727 19.9774 6.08107 19.9774C5.71551 19.9774 5.43119 19.9774 5.19764 19.9266C4.93362 19.8961 4.73054 19.8454 4.54776 19.7946L4.0502 19.6423C3.91819 19.5915 3.78618 19.5407 3.66433 19.5103V15.9867C3.89788 16.139 4.1822 16.271 4.5173 16.3523L4.5376 16.3421Z" fill="white"/>
<path d="M24.5431 14.2707C24.2791 14.3519 23.9948 14.4027 23.6901 14.4737C23.3753 14.5245 23.0402 14.5753 22.7051 14.6058C22.3701 14.6565 22.035 14.6565 21.7202 14.6565C20.918 14.6565 20.2376 14.5753 19.6182 14.4534C19.0191 14.3011 18.5013 14.0879 18.0849 13.7833C17.6686 13.4685 17.3538 13.0521 17.1507 12.5343C16.9476 12.0367 16.8359 11.4173 16.8359 10.6963V5.7207H20.4103V9.99568C20.4103 10.3815 20.461 10.7268 20.5626 10.9502C20.6438 11.2142 20.7961 11.4173 20.9992 11.5696C21.2023 11.7219 21.4359 11.8336 21.7506 11.8844C22.0654 11.9352 22.4208 11.9656 22.8372 11.9656C23.4566 11.9656 23.9237 11.9149 24.2892 11.8133C24.6548 11.6813 24.9391 11.5493 25.1422 11.4274V5.7207H28.7165V19.5205H25.1422V14.0777C24.9899 14.1285 24.7766 14.2097 24.5228 14.2808L24.5431 14.2707Z" fill="white"/>
<path d="M42.5884 17.7945C42.6188 18.0585 42.6899 18.2921 42.7711 18.4139C42.8524 18.5967 42.9234 18.6983 43.0351 18.7795C43.1367 18.8607 43.2179 18.9115 43.3499 18.9318V19.5005H39.3796L39.1765 18.8506C39.0749 18.5866 39.0445 18.2819 39.0445 17.8859L38.2423 18.6881C37.958 18.9217 37.6736 19.1247 37.3385 19.3075C37.0034 19.4903 36.6379 19.6426 36.2013 19.7442C35.7646 19.8457 35.2467 19.8965 34.6476 19.8965C34.0485 19.8965 33.4596 19.8152 32.9316 19.6325C32.4137 19.4497 31.977 19.1654 31.581 18.8303C31.2155 18.4647 30.9108 18.0281 30.6976 17.4797C30.4945 16.9619 30.3828 16.3425 30.3828 15.6418C30.3828 15.0732 30.464 14.5553 30.6468 14.0577C30.8296 13.5602 31.0835 13.154 31.3982 12.7884C31.7333 12.4229 32.1294 12.1182 32.5863 11.8847C33.0534 11.6207 33.5713 11.4684 34.1704 11.3871L37.6736 10.8693C37.8056 10.8388 37.9376 10.8388 38.09 10.788C38.2423 10.7576 38.3743 10.7068 38.5063 10.6052C38.6383 10.524 38.7398 10.4225 38.8211 10.2905C38.9023 10.1381 38.9531 9.95537 38.9531 9.72182C38.9531 9.48827 38.9023 9.28518 38.8515 9.1024C38.7703 8.89932 38.6485 8.73685 38.486 8.60484C38.3032 8.45253 38.1001 8.34083 37.8158 8.26975C37.5315 8.18851 37.1659 8.1682 36.7496 8.1682C36.252 8.1682 35.8966 8.21898 35.6123 8.30021C35.2975 8.40175 35.064 8.56422 34.9116 8.71654C34.7289 8.89932 34.5969 9.1024 34.5258 9.31564L34.3735 10.0671H30.7991C30.7991 9.91475 30.8296 9.6812 30.8804 9.36642C30.9311 9.0821 31.0327 8.747 31.1952 8.38144C31.3272 8.04635 31.5607 7.6808 31.8146 7.31524C32.0786 6.94968 32.4137 6.61459 32.8808 6.2998C33.2971 6.01548 33.8455 5.75147 34.4649 5.56869C35.0843 5.38591 35.8154 5.28437 36.6988 5.25391C37.9173 5.25391 38.9328 5.38591 39.7045 5.61946C40.4559 5.88348 41.055 6.21857 41.4917 6.60443C41.908 7.02076 42.1923 7.4574 42.3446 7.95496C42.4766 8.45253 42.5477 8.93993 42.5477 9.4375V16.7486C42.5477 17.165 42.5782 17.5 42.629 17.7641L42.5884 17.7945ZM38.2829 13.0728C38.0493 13.1743 37.765 13.2758 37.3995 13.3368L36.445 13.5195C36.0286 13.6008 35.6631 13.6719 35.3584 13.7836C35.0437 13.8851 34.7898 14.0171 34.5766 14.1694C34.3735 14.3522 34.211 14.5553 34.1095 14.7888C34.0079 15.0224 33.9571 15.3067 33.9571 15.6723C33.9571 15.9566 34.0079 16.2206 34.0891 16.4237C34.1907 16.6572 34.3227 16.8096 34.5055 16.972C34.6578 17.104 34.8406 17.236 35.0538 17.2868C35.2874 17.368 35.5209 17.3883 35.7849 17.3883C35.9169 17.3883 36.0997 17.3579 36.3028 17.3376C36.5059 17.3071 36.7191 17.2563 36.973 17.1853C37.2065 17.0837 37.4401 16.9822 37.6736 16.8197C37.9072 16.6877 38.1103 16.4846 38.293 16.2511C38.4961 16.0175 38.6586 15.7332 38.7602 15.3676C38.8617 15.0325 38.9429 14.6365 38.9429 14.1796V12.7783C38.7398 12.9103 38.5063 13.0118 38.293 13.0931L38.2829 13.0728Z" fill="white"/>
<path d="M52.5992 9.62985C52.4976 9.34553 52.3352 9.11198 52.1625 8.9292C51.9594 8.72611 51.7259 8.59411 51.4619 8.49256C51.1776 8.41133 50.8425 8.36056 50.4464 8.36056C49.8473 8.36056 49.3802 8.49256 49.0248 8.77689C48.6593 9.06121 48.375 9.3963 48.1922 9.81263C47.9891 10.2493 47.8774 10.7164 47.8063 11.2139C47.7556 11.7115 47.7048 12.1684 47.7048 12.6152C47.7048 13.062 47.7352 13.5494 47.786 14.0368C47.8368 14.5547 47.9383 14.9913 48.1516 15.4077C48.3343 15.824 48.5882 16.1896 48.9842 16.4434C49.3498 16.7277 49.8372 16.8597 50.4668 16.8597C50.8831 16.8597 51.2486 16.7785 51.5533 16.5957C51.8376 16.4434 52.1016 16.2302 52.3047 15.9966C52.5078 15.7326 52.6703 15.4788 52.7718 15.1944C52.853 14.9304 52.9038 14.6766 52.9038 14.443H56.6406C56.6406 14.6766 56.6101 14.9609 56.539 15.3264C56.4375 15.7123 56.3055 16.0779 56.1227 16.4942C55.9399 16.8801 55.6861 17.2964 55.3916 17.7127C55.0565 18.129 54.691 18.4946 54.2239 18.7992C53.7568 19.1343 53.2389 19.3983 52.6195 19.6014C52.0001 19.8045 51.2689 19.9162 50.4668 19.9162C49.431 19.9162 48.4968 19.7639 47.6946 19.4491C46.8924 19.114 46.2121 18.6469 45.6739 18.0275C45.1256 17.4081 44.7092 16.6567 44.4249 15.7225C44.1406 14.8187 43.9883 13.7728 43.9883 12.6152C43.9883 11.4576 44.1406 10.3813 44.4554 9.47753C44.7702 8.59411 45.2068 7.82238 45.7755 7.19281C46.3441 6.57339 47.0244 6.10629 47.8266 5.79151C48.6085 5.45641 49.5122 5.29395 50.4769 5.29395C50.8932 5.29395 51.3299 5.34472 51.797 5.39549C52.2336 5.44626 52.6804 5.57827 53.117 5.73058C53.5537 5.91336 53.97 6.11645 54.3863 6.38046C54.7722 6.64447 55.1377 6.97957 55.4728 7.36543C55.7876 7.7513 56.0415 8.2184 56.2547 8.73627C56.4578 9.25414 56.5898 9.87355 56.6406 10.5742H52.9038C52.8226 10.2086 52.7515 9.87356 52.6195 9.6197L52.5992 9.62985Z" fill="white"/>
<path d="M69.1087 5.71045V8.61459H64.9353V19.5102H61.3609V8.61459H57.1875V5.71045H69.1189H69.1087Z" fill="white"/>
<path d="M79.0609 10.6963V5.7207H82.6352V19.5205H79.0609V13.6106H73.8009V19.5205H70.2266V5.7207H73.8009V10.6963H79.0609Z" fill="white"/>
<path d="M88.6642 14.2198L93.7007 5.71045H97.4578V19.5102H93.8835V11.1836H93.8327L88.9586 19.5102H85.0391V5.71045H88.6134V14.2198H88.6642Z" fill="white"/>
<path d="M108.651 5.71035H113.423L107.717 11.4374L113.657 19.5H108.986L104.944 13.6612L103.492 15.1437V19.5H99.918V5.7002H103.492V10.9398L108.651 5.7002V5.71035Z" fill="white"/>
</svg>
