<svg width="32" height="32" viewBox="0 0 32 32" fill="none" xmlns="http://www.w3.org/2000/svg">
<g clip-path="url(#clip0_4492_2039)">
<rect width="32" height="32" rx="16" fill="#EFF5FB"/>
<g clip-path="url(#clip1_4492_2039)">
<path d="M25.8217 20.5411C25.768 20.4479 25.4355 19.6996 23.8353 18.1615C22.1602 16.551 22.3852 16.8125 24.4029 14.0277C25.6317 12.3318 26.123 11.296 25.9692 10.8533C25.823 10.4312 24.9192 10.5426 24.9192 10.5426L21.9139 10.5607C21.9139 10.5607 21.6914 10.5296 21.5252 10.6319C21.3639 10.7329 21.2601 10.9659 21.2601 10.9659C21.2601 10.9659 20.7839 12.2787 20.1488 13.3947C18.81 15.7496 18.2737 15.8739 18.0549 15.7276C17.5461 15.3871 17.6736 14.3579 17.6736 13.6277C17.6736 11.3452 18.0074 10.3937 17.0223 10.1477C16.6948 10.0661 16.4548 10.0118 15.6185 10.0027C14.5459 9.99105 13.6371 10.0066 13.1233 10.2668C12.7808 10.4403 12.517 10.8274 12.6783 10.8494C12.877 10.8766 13.3271 10.975 13.5658 11.3116C13.8746 11.7453 13.8634 12.7214 13.8634 12.7214C13.8634 12.7214 14.0409 15.4078 13.4496 15.7418C13.0433 15.971 12.487 15.5036 11.2932 13.3662C10.6819 12.2722 10.2193 11.0617 10.2193 11.0617C10.2193 11.0617 10.1306 10.8364 9.97182 10.716C9.77931 10.5698 9.50929 10.5231 9.50929 10.5231L6.65158 10.5413C6.65158 10.5413 6.2228 10.5542 6.06528 10.7471C5.92527 10.9193 6.05403 11.274 6.05403 11.274C6.05403 11.274 8.2917 16.6947 10.8244 19.4277C13.1483 21.9328 15.786 21.7684 15.786 21.7684H16.9811C16.9811 21.7684 17.3424 21.727 17.5261 21.5211C17.6961 21.3321 17.6899 20.9774 17.6899 20.9774C17.6899 20.9774 17.6661 19.3163 18.4112 19.0717C19.145 18.8309 20.0876 20.677 21.0864 21.3878C21.8414 21.925 22.4152 21.8072 22.4152 21.8072L25.0867 21.7684C25.0867 21.7684 26.4843 21.6791 25.8217 20.5411Z" fill="#333333"/>
</g>
</g>
<defs>
<clipPath id="clip0_4492_2039">
<rect width="32" height="32" fill="white"/>
</clipPath>
<clipPath id="clip1_4492_2039">
<rect width="20" height="12" fill="white" transform="translate(6 10)"/>
</clipPath>
</defs>
</svg>
